# xmcd
#
# Track frame offsets: 
#        150
#        16192
#        52285
#        67746
#        84613
#        100446
#        112190
#        129691
#        147005
#        163388
#        179691
#        194175
#        208675
#        225095
#        242335
#        258196
#        274286
#        287930
#        303199
#        318740
#
# Disc length: 4442 seconds
#
# Revision: 0
# Processed by: cddbd v1.5.2PL0 Copyright (c) Steve Scherf et al.
# Submitted via: ExactAudioCopy v1.0b3
#
DISCID=32115814
DTITLE=Various Artist - Summer Trance 2010 - CD 1
DYEAR=1900
DGENRE=
TTITLE0=Andrew Spencer and The Vamprockerz - Zombie 2k10 (DJs From Mars 
TTITLE0=Remix Edit)
TTITLE1=Scotty Feat. Tesz Millan - Let The Beat Hit Em (Darius and Finla
TTITLE1=y Remix)
TTITLE2=Mario Lopez - Sadness (Original Radio Edit)
TTITLE3=Petros Feat. Roxay - Predator (Electro Radio Edit)
TTITLE4=Sidney Samson Feat. Lady Bee and Bizzey - Come On Let's Go (PH E
TTITLE4=lektro Remix Edit)
TTITLE5=Crew 7 Feat. Young Sixx - Get Down (Dutch Radio)
TTITLE6=Manuel Lauren - Little Bitch (Electro Edit)
TTITLE7=White and Maylena - Ibiza 2010 (Cuba Club Electro Edit)
TTITLE8=Apollo - Over Me (David May Remix Edit)
TTITLE9=Brooklyn Bounce Vs. Alex M. and Marc Van Damme - Crazy (Alex M. 
TTITLE9=Remix Edit)
TTITLE10=Andre Picar Feat. Ice MC - It's A Rainy Day (R&g Remix Edit)
TTITLE11=Alex M. - (I Wanna) Feel The Heat (Radio Edit)
TTITLE12=Splash - Wind Him Up (Edit Mix)
TTITLE13=DJ Lawless Vs. Oliver Swab - Push It Again 2k10 (Ced Tecknobo
TTITLE13=y Remix Edit)
TTITLE14=Brisby and Jingles - L'Amour Toujours (Black Toy Radio)
TTITLE15=Lanfranchi and Marchesini - Boys and Girls (The Real Booty Babes 
TTITLE15=Remix Edit)
TTITLE16=Orangez - Rock Your Body (Kris Mctwain Remix Edit)
TTITLE17=Dirty Impact Feat. Chris Antonio - Born To Be Wild (DJ Gollum
TTITLE17=Radio Remix)
TTITLE18=Jens O. - Hands Up (Radio Edit)
TTITLE19=Bangbros - Du Willst Immer Nur F***** (Hands Up Radio Mix)
EXTD=
EXTT0=
EXTT1=
EXTT2=
EXTT3=
EXTT4=
EXTT5=
EXTT6=
EXTT7=
EXTT8=
EXTT9=
EXTT10=
EXTT11=
EXTT12=
EXTT13=
EXTT14=
EXTT15=
EXTT16=
EXTT17=
EXTT18=
EXTT19=
PLAYORDER=
